<svg xmlns="http://www.w3.org/2000/svg" xmlns:xlink="http://www.w3.org/1999/xlink" width="1292" height="169" viewBox="0 0 1292 169">
  <defs>
    <clipPath id="clip-path">
      <rect id="Rechteck_39" data-name="Rechteck 39" width="1292" height="169" rx="4" transform="translate(-8 -4.456)"/>
    </clipPath>
    <linearGradient id="linear-gradient" x1="0.881" y1="0.726" x2="0.384" y2="0.431" gradientUnits="objectBoundingBox">
      <stop offset="0" stop-color="#aa1313"/>
      <stop offset="1" stop-color="#141517"/>
    </linearGradient>
    <linearGradient id="linear-gradient-2" x1="0.827" y1="0.366" x2="0.298" y2="-0.134" xlink:href="#linear-gradient"/>
    <linearGradient id="linear-gradient-3" x1="0.688" y1="1.187" x2="-0.01" y2="0.49" xlink:href="#linear-gradient"/>
    <linearGradient id="linear-gradient-4" x1="0.624" y1="0.163" x2="0.487" y2="0.534" xlink:href="#linear-gradient"/>
    <linearGradient id="linear-gradient-5" x1="0.481" y1="0.508" x2="0.04" y2="0.691" xlink:href="#linear-gradient"/>
    <linearGradient id="linear-gradient-6" x1="0.852" y1="0.192" x2="0.176" y2="0.784" xlink:href="#linear-gradient"/>
    <linearGradient id="linear-gradient-7" x1="0.502" y1="0.481" x2="0.527" y2="0.288" gradientUnits="objectBoundingBox">
      <stop offset="0.001" stop-color="#aa1313" stop-opacity="0"/>
      <stop offset="1" stop-color="#141517"/>
    </linearGradient>
    <linearGradient id="linear-gradient-8" x1="0.518" y1="0.45" x2="0.571" y2="0.304" xlink:href="#linear-gradient-7"/>
    <linearGradient id="linear-gradient-9" x1="0.469" y1="0.697" x2="0.551" y2="0.17" xlink:href="#linear-gradient-7"/>
    <clipPath id="clip-Zeichenfläche_2">
      <rect width="1292" height="169"/>
    </clipPath>
  </defs>
  <g id="Zeichenfläche_2" data-name="Zeichenfläche – 2" clip-path="url(#clip-Zeichenfläche_2)">
    <rect width="1292" height="169" fill="#212830"/>
    <g id="Zeichenfläche_1" data-name="Zeichenfläche – 1" transform="translate(8 4.456)" clip-path="url(#clip-path)">
      <g id="_679f540bed39f15cca2f189a_bg-red" data-name="679f540bed39f15cca2f189a_bg-red" transform="translate(0 -177.552)">
        <g id="Layer_1">
          <g id="Gruppe_7" data-name="Gruppe 7" transform="translate(-8.848)">
            <rect id="Rechteck_33" data-name="Rechteck 33" width="1301" height="1680" transform="translate(-0.152 0.096)" fill="url(#linear-gradient)"/>
            <path id="Pfad_16" data-name="Pfad 16" d="M0,102.074,1300.354,889.645V0H0Z" fill="url(#linear-gradient-2)"/>
            <path id="Pfad_17" data-name="Pfad 17" d="M0,223.386V883H1232.891Z" transform="translate(0 796.263)" fill="url(#linear-gradient-3)"/>
            <path id="Pfad_18" data-name="Pfad 18" d="M523.181,0H172.235L874.13,596.151V245.272Z" transform="translate(426.224)" fill="url(#linear-gradient-4)"/>
            <path id="Pfad_19" data-name="Pfad 19" d="M0,729.732V334.082l613.771,395.65Z" transform="translate(0 949.533)" fill="url(#linear-gradient-5)"/>
            <path id="Pfad_20" data-name="Pfad 20" d="M787.066,0V245.272L436.117,0Z" transform="translate(513.288)" fill="url(#linear-gradient-6)"/>
            <path id="Pfad_21" data-name="Pfad 21" d="M359.951,0,845.9,388.224V501.7L255.336,0Z" transform="translate(453.642)" fill="url(#linear-gradient-7)"/>
            <path id="Pfad_22" data-name="Pfad 22" d="M1300.354,907.932,0,93.342V315.578l1300.354,747.485Z" transform="translate(0 616.201)" fill="url(#linear-gradient-8)"/>
            <path id="Pfad_23" data-name="Pfad 23" d="M465.479,653.318,0,389.271V521.3L229.063,653.323Z" transform="translate(0 1025.946)" fill="url(#linear-gradient-9)"/>
          </g>
        </g>
      </g>
      <text id="Try_now_for_free" data-name="Try now for free" transform="translate(70 73.544)" fill="#fff" font-size="35" font-family="Satoshi-Regular, Satoshi"><tspan x="0" y="0">Start to build, deploy,</tspan><tspan x="0" y="41">and sell your product!</tspan></text>
    </g>
    <rect id="Rechteck_41" data-name="Rechteck 41" width="292" height="61" rx="5" transform="translate(928 54)" fill="#ee1c25"/>
    <text id="Try_now_for_free-2" data-name="Try now for free" transform="translate(967 95)" fill="#fff" font-size="30" font-family="Satoshi-Medium, Satoshi" font-weight="500"><tspan x="0" y="0">Try now for free</tspan></text>
  </g>
</svg>
